<svg width="20" height="20" viewBox="0 0 20 20" fill="none" xmlns="http://www.w3.org/2000/svg">
<g clip-path="url(#clip0_807_2)">
<path fill-rule="evenodd" clip-rule="evenodd" d="M7.172 11.334L10.002 13.269L12.73 11.387L18.845 17.42C18.684 17.472 18.512 17.5 18.333 17.5H1.667C1.447 17.5 1.237 17.457 1.044 17.38L7.172 11.334ZM20 6.376V15.833C20 16.08 19.946 16.314 19.85 16.525L13.856 10.611L20 6.376ZM9.43602e-07 6.429L6.042 10.561L0.106001 16.419C0.0356967 16.2316 -0.000212233 16.0331 9.43602e-07 15.833V6.429ZM18.333 2.5C19.253 2.5 20 3.246 20 4.167V4.753L9.998 11.648L9.43602e-07 4.81V4.167C9.43602e-07 3.247 0.746001 2.5 1.667 2.5H18.333Z" fill="black"/>
</g>
<defs>
<clipPath id="clip0_807_2">
<rect width="20" height="20" fill="white"/>
</clipPath>
</defs>
</svg>