<svg fill="none" height="20" viewBox="0 0 20 20" width="20" xmlns="http://www.w3.org/2000/svg"><path clip-rule="evenodd" d="m4.29289 4.29289c.39053-.39052 1.02369-.39052 1.41422 0l4.29289 4.2929 4.2929-4.2929c.3905-.39052 1.0237-.39052 1.4142 0 .3905.39053.3905 1.02369 0 1.41422l-4.2929 4.29289 4.2929 4.2929c.3905.3905.3905 1.0237 0 1.4142s-1.0237.3905-1.4142 0l-4.2929-4.2929-4.29289 4.2929c-.39053.3905-1.02369.3905-1.41422 0-.39052-.3905-.39052-1.0237 0-1.4142l4.2929-4.2929-4.2929-4.29289c-.39052-.39053-.39052-1.02369 0-1.41422z" fill="#4a5568" fill-rule="evenodd"/></svg>