<svg width="32" height="32" viewBox="0 0 32 32" fill="none" xmlns="http://www.w3.org/2000/svg">
<path d="M31.1213 29.3048L31.1222 29.3057C31.2419 29.4244 31.3369 29.5657 31.4018 29.7213C31.4666 29.8769 31.5 30.0439 31.5 30.2125C31.5 30.3811 31.4666 30.548 31.4018 30.7037C31.3369 30.8593 31.2419 31.0006 31.1222 31.1193L31.1193 31.1222C31.0006 31.2419 30.8593 31.3369 30.7037 31.4018C30.548 31.4666 30.3811 31.5 30.2125 31.5C30.0439 31.5 29.8769 31.4666 29.7213 31.4018C29.5657 31.3369 29.4244 31.2419 29.3057 31.1222L29.3048 31.1213L23.28 25.0788L22.9665 24.7643L22.6172 25.0385C20.2217 26.9188 17.2636 27.9391 14.2183 27.9353H14.2176C11.5046 27.9353 8.85239 27.1308 6.59653 25.6234C4.34068 24.1161 2.58246 21.9737 1.5442 19.4672C0.505944 16.9606 0.234289 14.2024 0.763587 11.5415C1.29289 8.88051 2.59936 6.43626 4.51781 4.51781C6.43626 2.59936 8.88051 1.29289 11.5415 0.763587C14.2024 0.234289 16.9606 0.505944 19.4672 1.5442C21.9737 2.58246 24.1161 4.34068 25.6234 6.59653C27.1308 8.85239 27.9353 11.5046 27.9353 14.2176V14.2183C27.9391 17.2636 26.9188 20.2217 25.0385 22.6172L24.7643 22.9665L25.0788 23.28L31.1213 29.3048ZM4.93576 8.01569C3.70913 9.85147 3.05442 12.0098 3.05442 14.2176C3.05442 17.1783 4.23054 20.0177 6.32405 22.1112C8.41756 24.2048 11.257 25.3809 14.2176 25.3809C16.4255 25.3809 18.5838 24.7262 20.4196 23.4995C22.2554 22.2729 23.6862 20.5294 24.5311 18.4896C25.376 16.4498 25.5971 14.2053 25.1664 12.0398C24.7356 9.87436 23.6724 7.88526 22.1112 6.32405C20.55 4.76285 18.5609 3.69965 16.3955 3.26891C14.23 2.83818 11.9855 3.05925 9.94566 3.90417C7.90585 4.74908 6.16239 6.17991 4.93576 8.01569Z" fill="white" stroke="#827C81"/>
</svg>
